<?xml version="1.0" encoding="UTF-8" standalone="no"?><!DOCTYPE svg PUBLIC "-//W3C//DTD SVG 1.1//EN" "http://www.w3.org/Graphics/SVG/1.1/DTD/svg11.dtd"><svg width="100%" height="100%" viewBox="0 0 3213 1075" version="1.1" xmlns="http://www.w3.org/2000/svg" xmlns:xlink="http://www.w3.org/1999/xlink" xml:space="preserve" xmlns:serif="http://www.serif.com/" style="fill-rule:evenodd;clip-rule:evenodd;stroke-linejoin:round;stroke-miterlimit:2;"><g><g><path d="M2301.261,12.201l-244.997,476.632l262.654,585.074l-333.953,0l-210.483,-457.254l0,457.254l-323.205,0l0,-1061.706l323.205,0l0,409.428l223.534,-409.428l303.245,-0Z" style="fill-rule:nonzero;"/></g><path d="M1335.299,12.201l-1,1058.905l-278.578,0l1,-603.203c0,-82.361 -2.069,-131.865 -6.206,-148.513c-4.137,-16.647 -15.515,-29.243 -34.133,-37.785c-18.618,-8.543 -83.495,-12.814 -83.495,-12.814c0,0 -0.934,-124.035 0,-124.035c154.037,0 151.318,-132.555 151.318,-132.555l251.094,0Z" style="fill-rule:nonzero;"/><path d="M3212.687,522.046c0.092,4.323 0.139,8.659 0.139,13.007c0,295.304 -214.34,535.053 -478.346,535.053c-264.007,0 -478.346,-239.749 -478.346,-535.053c0,-287.581 203.276,-522.476 457.74,-534.564c4.067,-0.324 8.175,-0.489 12.319,-0.489l324.422,0c89.527,0 162.211,76.904 162.211,171.629l0,343.257c0,2.398 -0.047,4.785 -0.139,7.16Zm-544.83,-326.38c-138.794,38.722 -241.526,176.078 -241.526,339.387c0,163.309 102.732,300.666 241.526,339.387c-27.448,-81.051 -44.928,-203.047 -44.928,-339.387c0,-136.341 17.479,-258.337 44.928,-339.387Zm159.574,678.775c138.794,-38.722 241.526,-176.078 241.526,-339.387c0,-163.309 -102.732,-300.666 -241.526,-339.387c27.448,81.051 44.928,203.047 44.928,339.387c0,136.341 -17.479,258.337 -44.928,339.387Z"/></g><path d="M288.519,603.12l0,475.586l-288.519,0l0,-1069.706l288.519,0c0,-4.055 280.761,504.113 280.761,504.113l0,-504.913l288.519,0l0,1069.706l-288.519,0l-280.761,-474.787Z"/></svg>